<?xml version="1.0" encoding="UTF-8"?>
<svg width="68px" height="68px" viewBox="0 0 68 68" version="1.1" xmlns="http://www.w3.org/2000/svg" xmlns:xlink="http://www.w3.org/1999/xlink">
    <!-- Generator: sketchtool 47.1 (45422) - http://www.bohemiancoding.com/sketch -->
    <title>37F0812F-DEC1-4475-8CC0-CC5C13CD42D0</title>
    <desc>Created with sketchtool.</desc>
    <defs></defs>
    <g id="Symbols-&amp;-Icons" stroke="none" stroke-width="1" fill="none" fill-rule="evenodd">
        <g id="Icon/Collapse" fill-rule="nonzero" fill="#7B95CE">
            <path d="M24.8997181,57.8449314 L12.9196406,57.8449314 C11.122629,57.8449314 9.9246212,56.6469237 9.9246212,54.849912 L9.9246212,42.8698345 C9.9246212,41.0728228 11.122629,39.8748151 12.9196406,39.8748151 L12.9196406,39.8748151 C14.7166522,39.8748151 15.91466,41.0728228 15.91466,42.8698345 L15.91466,47.6618655 L25.798224,37.7783015 C26.9962317,36.5802938 28.7932434,36.5802938 29.9912511,37.7783015 C31.1892589,38.9763093 31.1892589,40.7733209 29.9912511,41.9713287 L20.1076871,51.8548926 L24.8997181,51.8548926 C26.6967298,51.8548926 27.8947375,53.0529004 27.8947375,54.849912 C27.8947375,56.6469237 26.6967298,57.8449314 24.8997181,57.8449314 Z M39.8748151,30.8897569 C38.9763093,30.8897569 38.3773054,30.590255 37.7783015,29.9912511 C36.5802938,28.7932434 36.5802938,26.9962317 37.7783015,25.798224 L47.6618655,15.91466 L42.8698345,15.91466 C41.0728228,15.91466 39.8748151,14.7166522 39.8748151,12.9196406 C39.8748151,11.122629 41.0728228,9.9246212 42.8698345,9.9246212 L54.849912,9.9246212 C56.6469237,9.9246212 57.8449314,11.122629 57.8449314,12.9196406 L57.8449314,24.8997181 C57.8449314,26.6967298 56.6469237,27.8947375 54.849912,27.8947375 C53.0529004,27.8947375 51.8548926,26.6967298 51.8548926,24.8997181 L51.8548926,20.1076871 L41.9713287,29.9912511 C41.3723248,30.590255 40.7733209,30.8897569 39.8748151,30.8897569 Z" id="Shape" transform="translate(33.884776, 33.884776) rotate(45.000000) translate(-33.884776, -33.884776) "></path>
        </g>
    </g>
</svg>