<?xml version="1.0" encoding="UTF-8"?>
<svg width="80px" height="91px" viewBox="0 0 80 91" version="1.1" xmlns="http://www.w3.org/2000/svg" xmlns:xlink="http://www.w3.org/1999/xlink">
    <!-- Generator: sketchtool 47.1 (45422) - http://www.bohemiancoding.com/sketch -->
    <title>30E17616-6297-413F-AB8A-9A6F7337B4BE</title>
    <desc>Created with sketchtool.</desc>
    <defs></defs>
    <g id="MediaPress-UI" stroke="none" stroke-width="1" fill="none" fill-rule="evenodd">
        <g id="Style-Guide-/-none" transform="translate(-782.000000, -257.000000)" fill-rule="nonzero" fill="#FFFFFF">
            <g id="Preview-Icon-Copy-9" transform="translate(782.000000, 257.000000)">
                <path d="M79.4285714,31.85 C78.8571429,31.28125 78.8571429,30.7125 78.2857143,30.14375 L49.7142857,1.70625 C49.1428571,1.1375 48.5714286,0.56875 48,0.56875 C47.4285714,0 46.2857143,0 45.7142857,0 L5.71428571,0 C2.28571429,0 0,2.275 0,5.6875 L0,85.3125 C0,88.725 2.28571429,91 5.71428571,91 L74.2857143,91 C77.7142857,91 80,88.725 80,85.3125 L80,34.125 C80,33.55625 80,32.41875 79.4285714,31.85 Z M51.4285714,19.3375 L60.5714286,28.4375 L51.4285714,28.4375 L51.4285714,19.3375 Z M68.5714286,79.625 L11.4285714,79.625 L11.4285714,11.375 L40,11.375 L40,34.125 C40,37.5375 42.2857143,39.8125 45.7142857,39.8125 L68.5714286,39.8125 L68.5714286,79.625 Z" id="Shape"></path>
                <path d="M21.3333333,38 L26.6666667,38 C29.8666667,38 32,35.8 32,32.5 C32,29.2 29.8666667,27 26.6666667,27 L21.3333333,27 C18.1333333,27 16,29.2 16,32.5 C16,35.8 18.1333333,38 21.3333333,38 Z" id="Shape"></path>
                <path d="M16,51.5 C16,54.8 18.3,57 21.75,57 L56.25,57 C59.7,57 62,54.8 62,51.5 C62,48.2 59.7,46 56.25,46 L21.75,46 C18.3,46 16,48.2 16,51.5 Z" id="Shape"></path>
                <path d="M56.25,64 L21.75,64 C18.3,64 16,66.2 16,69.5 C16,72.8 18.3,75 21.75,75 L56.25,75 C59.7,75 62,72.8 62,69.5 C62,66.2 59.7,64 56.25,64 Z" id="Shape"></path>
            </g>
        </g>
    </g>
</svg>